<svg height="384pt" viewBox="0 0 384 384" width="384pt" xmlns="http://www.w3.org/2000/svg"><path d="m374 0h-99.699219c-5.523437 0-10 4.476562-10 10s4.476563 10 10 10h75.710938l-194.511719 196.375c-3.730469 3.949219-3.628906 10.148438.226562 13.972656 3.855469 3.824219 10.058594 3.867188 13.972657.105469l194.300781-196.152344v75.398438c0 5.523437 4.476562 10 10 10s10-4.476563 10-10v-99.699219c0-5.523438-4.476562-10-10-10zm0 0"/><path d="m324.136719 214.492188c-5.523438 0-10 4.476562-10 10v109.507812c-.019531 16.5625-13.4375 29.980469-30 30h-234.136719c-16.5625-.019531-29.980469-13.4375-30-30v-234.136719c.019531-16.5625 13.4375-29.980469 30-30h109.507812c5.523438 0 10-4.476562 10-10 0-5.523437-4.476562-10-10-10h-109.507812c-27.601562.03125-49.96875 22.398438-50 50v234.136719c.03125 27.601562 22.398438 49.96875 50 50h234.136719c27.601562-.03125 49.96875-22.398438 50-50v-109.507812c0-5.523438-4.476563-10-10-10zm0 0"/></svg>